# xmcd
#
# Track frame offsets:
#	150
#	13390
#	28294
#	39140
#	49204
#	59341
#	74845
#	85418
#	101214
#	112047
#	122343
#	132350
#	141867
#	153566
#	167897
#	179276
#	187241
#	206576
#	215194
#	224187
#
# Disc length: 3157 seconds
#
# Revision: 2
# Processed by: cddbd v1.5.2PL0 Copyright (c) Steve Scherf et al.
# Submitted via: audiograbber 1.83.01
#
DISCID=4c0c5314
DTITLE=Various Artist - 100 Country Gospel Favourites D2
DYEAR=2004
DGENRE=Gospel
TTITLE0=Jesus Loves Me
TTITLE1=When I Survey
TTITLE2=Count Your Blessings
TTITLE3=The Solid Rock
TTITLE4=Lilly Of The Valley
TTITLE5=Cover Me
TTITLE6=Blessed Assurance
TTITLE7=Blessed
TTITLE8=Can't Take It With You
TTITLE9=My Jesus I Love You
TTITLE10=Sunshine In My Soul
TTITLE11=Come Thou Almighty King
TTITLE12=Fairest Lord Jesus
TTITLE13=Swett Hour Of Prayer
TTITLE14=Nothing But The Blood
TTITLE15=Standing On The Promises
TTITLE16=The Red Covered Bridge
TTITLE17=Peace Like A River
TTITLE18=At The Cross
TTITLE19=Tis So Sweet
EXTD=
EXTT0=
EXTT1=
EXTT2=
EXTT3=
EXTT4=
EXTT5=
EXTT6=
EXTT7=
EXTT8=
EXTT9=
EXTT10=
EXTT11=
EXTT12=
EXTT13=
EXTT14=
EXTT15=
EXTT16=
EXTT17=
EXTT18=
EXTT19=
PLAYORDER=
